<svg xmlns="http://www.w3.org/2000/svg" xmlns:xlink="http://www.w3.org/1999/xlink" version="1.1" x="0px" y="0px" viewBox="0 0 100 125" enable-background="new 0 0 100 100" xml:space="preserve"><g display="none"><path display="inline" d="M58.672,59.96l-1.34-1.24c-0.04-0.04-0.221-0.1-0.261-0.1h-1.06l-3.06-2.851V54.37h1v-1.96h-1.95v-1.58   h-0.641v1.58h-0.77v-1.55h-0.65v1.55h-0.77v-1.55h-0.65v1.55h-3.27V52c0-0.14-0.11-0.25-0.25-0.25h-2.06   c-0.14,0-0.25,0.11-0.25,0.25v2.78c0,0.14,0.11,0.25,0.25,0.25h2.06c0.14,0,0.25-0.11,0.25-0.25v-0.41h2.272v1.399l-3.06,2.851   h-1.06c-0.04,0-0.221,0.06-0.261,0.1l-1.34,1.24c-0.06,0.06-0.09,0.28-0.09,0.32v3.75c0,0.14,0.11,0.25,0.25,0.25h0.15   c0.13,0,0.25-0.11,0.25-0.25v-0.205c0.192,0.271,0.47,0.454,0.791,0.454c0.385,0,0.707-0.26,0.889-0.629v1   c0,0.14,0.11,0.25,0.25,0.25c0.01,0,0.07,0,0.08,0h0.687v1.159c0,1.101,0.9,2,2,2h1.11v0.41c0,0.141,0.11,0.25,0.25,0.25h3.56   c0.141,0,0.25-0.109,0.25-0.25v-0.41h1.21c1.101,0,2-0.899,2-2V64.9h0.66c0.01,0,0.07,0,0.08,0c0.14,0,0.25-0.11,0.25-0.25v-1   c0.182,0.369,0.504,0.629,0.889,0.629c0.321,0,0.599-0.183,0.791-0.454v0.205c0,0.14,0.12,0.25,0.25,0.25h0.15   c0.14,0,0.25-0.11,0.25-0.25v-3.75C58.762,60.24,58.731,60.02,58.672,59.96z M44.295,61.15c-0.14,0-0.25,0.119-0.25,0.25v1.015   c-0.182-0.369-0.504-0.629-0.889-0.629c-0.321,0-0.599,0.183-0.791,0.454v-1.92l1.13-1.051h1.05c0.02,0,0.04,0,0.06-0.01   c0.011,0,0.15-0.04,0.19-0.069l0.339-0.316c-0.043,0.139-0.073,0.283-0.073,0.436v1.841H44.295z M44.535,64.42v-2.78h0.526v2.78   H44.535z M49.382,55.44c-0.23,0.189-0.38,0.46-0.38,0.75s0.15,0.56,0.38,0.75h-0.96c-0.14,0-0.25,0.109-0.25,0.25v0.619h-1.61   c-0.112,0-0.221,0.015-0.326,0.038l1.8-1.678c0.01-0.01,0.14-0.14,0.14-0.229v-1.57h1.207V55.44z M53.952,57.81h-1.721V57.19   c0-0.141-0.109-0.25-0.25-0.25h-0.87c0.24-0.19,0.381-0.46,0.381-0.75s-0.141-0.561-0.37-0.75v-1.07h1.18v1.57   c0,0.09,0.13,0.22,0.14,0.229l1.79,1.668C54.141,57.82,54.048,57.81,53.952,57.81z M55.941,64.42h-0.5v-2.78h0.5V64.42z    M58.111,62.24c-0.192-0.271-0.47-0.454-0.791-0.454c-0.385,0-0.707,0.26-0.889,0.629V61.4c0-0.131-0.11-0.25-0.25-0.25h-0.74   v-0.62c0-0.03,0.011-0.061,0.011-0.09V59.31c0-0.135-0.024-0.263-0.059-0.388l0.288,0.269c0.04,0.029,0.18,0.069,0.19,0.069   c0.02,0.01,0.04,0.01,0.06,0.01h1.05l1.13,1.051V62.24z"/><circle display="inline" fill="#000000" cx="50.254" cy="62.961" r="1.1"/><g display="inline"><path fill="#000000" d="M50.238,65.627c-1.482,0-2.688-1.206-2.688-2.689c0-1.481,1.206-2.687,2.688-2.687    c1.483,0,2.689,1.205,2.689,2.687C52.927,64.421,51.721,65.627,50.238,65.627z M50.238,60.453c-1.37,0-2.484,1.114-2.484,2.484    c0,1.372,1.115,2.487,2.484,2.487c1.372,0,2.487-1.115,2.487-2.487C52.725,61.567,51.609,60.453,50.238,60.453z"/></g></g><g><path d="M95.287,33.412c-0.246-0.061-7.661-0.374-9.451-0.468c-1.253-0.065-4.855-0.152-6.905-0.199   c-0.036-0.02-0.073-0.038-0.115-0.051c-0.027-0.593-0.61-1.069-1.333-1.069c-0.711,0-1.277,0.459-1.327,1.034   c-1.909-0.103-6.02-0.318-7.378-0.351c-1.792-0.042-9.209-0.291-9.459-0.25s-0.209,0.666,0.375,0.833s11.67,1.417,14.002,1.458   c0.812,0.015,1.517,0.019,2.099,0.019v0.798c0,0.153,0.142,0.285,0.343,0.344V36h-0.725c-0.595,0-1.077,0.302-1.077,0.674v1.963   c-1.092-0.1-2.312-0.221-3.709-0.386c-8.791-1.042-16.374-3.208-17.666-3.167c-0.65,0.021-5.1,0.021-5.75,0   c-1.292-0.042-8.875,2.125-17.666,3.167c-1.312,0.155-2.465,0.271-3.506,0.368v-2.007c0-0.372-0.482-0.674-1.077-0.674h-0.725   v-0.49c0.201-0.059,0.343-0.19,0.343-0.344v-0.798c0.582,0,1.286-0.004,2.099-0.019c2.332-0.041,13.418-1.291,14.002-1.458   s0.625-0.792,0.375-0.833s-7.667,0.208-9.459,0.25c-1.358,0.032-5.469,0.248-7.378,0.351c-0.05-0.575-0.616-1.034-1.327-1.034   c-0.723,0-1.306,0.477-1.333,1.069c-0.042,0.013-0.079,0.031-0.115,0.051c-2.05,0.047-5.652,0.134-6.905,0.199   c-1.79,0.094-9.205,0.407-9.451,0.468s-0.158,0.68,0.438,0.802c0.595,0.122,11.743,0.528,14.072,0.394   c0.604-0.035,1.149-0.071,1.63-0.106v0.665c0,0.148,0.134,0.273,0.322,0.335v0.499h-0.725c-0.594,0-1.076,0.302-1.076,0.674v2.72   c-1.018,0.283-1.412,0.74-1.412,1.669c0,2.333,2.917,1.708,4.625,1.708s2.542,0.917,5.292,1.875s4.833,0.792,5.625,0.667   s1.125-0.333,1.917,0.375s-0.375,4-0.375,4c-1.416,3.959-1.542,16.583-1.542,18.083s0.083,2.709,0.833,2.709   s1.209-1.209,1.584-2.625s0.208-10.25,0.333-10.834s0.708-0.666,0.792-1.75s0.083-3.583,0.666-4.75s2.125-1.583,2.209-2.932   s1.625-0.902,2.125-0.86c0.282,0.023,0.688,0.709,0.939,1.208c0.669,1.921,2.369,3.294,4.374,3.294h4.686   c1.833,0,3.402-1.152,4.174-2.813c-0.018,0.051-0.007,0.043,0.044-0.056l-0.017,0c0.05-0.11,0.104-0.217,0.146-0.332   c0.246-0.501,0.687-1.277,0.986-1.302c0.5-0.042,2.041-0.488,2.125,0.86s1.626,1.765,2.209,2.932s0.582,3.666,0.666,4.75   s0.667,1.166,0.792,1.75s-0.042,9.418,0.333,10.834s0.834,2.625,1.584,2.625s0.833-1.209,0.833-2.709s-0.126-14.124-1.542-18.083   c0,0-1.167-3.292-0.375-4s1.125-0.5,1.917-0.375s2.875,0.292,5.625-0.667s3.584-1.875,5.292-1.875s4.625,0.625,4.625-1.708   c0-0.868-0.337-1.326-1.209-1.613v-2.714c0-0.372-0.482-0.674-1.076-0.674h-0.725V35.5c0.188-0.062,0.322-0.187,0.322-0.335V34.5   c0.48,0.035,1.025,0.071,1.63,0.106c2.329,0.135,13.478-0.271,14.072-0.394C95.445,34.091,95.533,33.472,95.287,33.412z"/></g><text x="0" y="115" fill="#000000" font-size="5px" font-weight="bold" font-family="'Helvetica Neue', Helvetica, Arial-Unicode, Arial, Sans-serif">Created by Patrick McDonnell</text><text x="0" y="120" fill="#000000" font-size="5px" font-weight="bold" font-family="'Helvetica Neue', Helvetica, Arial-Unicode, Arial, Sans-serif">from the Noun Project</text></svg>